<?xml version="1.0" standalone="no"?><!DOCTYPE svg PUBLIC "-//W3C//DTD SVG 1.1//EN" "http://www.w3.org/Graphics/SVG/1.1/DTD/svg11.dtd"><svg t="1769569058351" class="icon" viewBox="0 0 1024 1024" version="1.1" xmlns="http://www.w3.org/2000/svg" p-id="13211" xmlns:xlink="http://www.w3.org/1999/xlink" width="200" height="200"><path d="M814.848 187.264H204.544c-35.2 0-63.616 28.544-63.744 63.744v496.64c0.128 35.2 28.544 63.616 63.744 63.616h269.952c12.928-0.384 23.168-11.264 22.784-24.192-0.384-12.416-10.368-22.4-22.784-22.784H204.544c-9.216 0.128-16.768-7.296-16.768-16.512V358.784h643.968v290.688c0 12.928 10.496 23.424 23.424 23.424s23.424-10.496 23.424-23.424V250.88c-0.128-35.072-28.544-63.616-63.744-63.616zM187.776 316.288v-65.28c0-9.216 7.552-16.768 16.768-16.768h154.624c0 0.128-0.128 0.384-0.128 0.512v31.36c0 5.504 2.176 10.624 6.016 14.464 7.936 8.064 20.992 8.192 28.928 0.128 3.968-3.84 6.144-9.216 6.144-14.848v-31.232c0-0.128-0.128-0.384-0.128-0.512h221.568c0 0.128-0.128 0.384-0.128 0.512v31.36c0 11.392 9.216 20.48 20.608 20.608 11.392 0 20.48-9.088 20.608-20.48v-31.488c0-0.128-0.128-0.384-0.128-0.512h152.192c9.216 0 16.768 7.552 16.768 16.768v65.408H187.776zM697.6 687.616c-4.096 0-6.144-2.048-10.24-2.048-2.048 0-14.464-6.144-6.144-30.848 22.656-24.704 37.12-57.728 37.12-90.624 0-53.632-35.072-80.384-76.288-80.384S565.76 510.464 565.76 563.968c0 33.024 14.464 65.92 37.12 90.624 8.192 20.608-6.144 28.8-10.24 30.848-41.216 14.464-90.624 43.264-90.624 70.016v10.24c0 35.072 63.872 45.312 129.792 45.312v-14.464l14.464-53.632c2.048-6.144 4.096-10.24 10.24-14.464l41.088-40.832z m-3.712-1.536h17.152l34.56 81.536 33.792-81.536h17.28v125.184h-18.304v-78.08h-0.384l-25.216 60.16h-15.232l-25.216-60.16h-0.384v78.08h-18.304V686.08h0.256z m128 0h76.8v17.92h-58.624v35.712h50.048V756.48h-50.048v36.736h58.624v17.92h-76.8V686.08z" p-id="13212"></path><path d="M248.192 640.384h16.128v-82.688h-11.776v-31.104h11.776v-62.848h-13.696v-30.72h58.24v30.72h-13.696v62.848h11.392v31.104h-11.392v82.688h16v30.976H248.32v-30.976m91.52-42.624v-108.032l19.456-23.68v100.608L339.84 597.76m23.68 61.568l17.408-34.432V424.576h23.424v214.016l-47.36 36.48 6.528-15.744m70.912-18.944h16v-82.688H439.04v-31.104h11.392v-62.848h-13.696v-30.72h58.24v30.72h-13.44v62.848h11.392v31.104h-11.392v82.688h15.744v30.976h-62.848v-30.976" p-id="13213"></path><path d="M478.976 448.384c0 8.448 6.912 15.36 15.36 15.36s15.36-6.912 15.36-15.36-6.912-15.36-15.36-15.36c-8.576 0-15.36 6.912-15.36 15.36z m-56.832 0c0 8.448 6.912 15.36 15.36 15.36s15.36-6.912 15.36-15.36-6.912-15.36-15.36-15.36-15.36 6.784-15.36 15.36z m-41.216-23.552c0 6.4 5.248 11.648 11.648 11.648s11.648-5.248 11.648-11.648-5.248-11.648-11.648-11.648c-6.4-0.128-11.648 5.12-11.648 11.648z m96.768 117.376c0 8.576 6.912 15.488 15.488 15.488s15.488-6.912 15.488-15.488c0-8.576-6.912-15.488-15.488-15.488s-15.488 6.912-15.488 15.488z m-54.016 0c0 8.576 6.912 15.488 15.488 15.488s15.488-6.912 15.488-15.488-6.912-15.488-15.488-15.488c-8.576-0.128-15.616 6.912-15.488 15.488z m58.112 113.664c-0.384 8.576 6.4 15.744 14.976 16.128s15.744-6.4 16.128-14.976v-1.152c0-5.504-2.944-10.624-7.808-13.44-4.864-2.688-10.752-2.688-15.488 0-4.864 2.816-7.808 7.936-7.808 13.44z m-62.848 0c0 8.576 6.912 15.488 15.488 15.488s15.488-6.912 15.488-15.488-6.912-15.488-15.488-15.488-15.488 6.912-15.488 15.488z m-186.368 0c0 8.576 6.912 15.488 15.488 15.616 8.576 0 15.488-6.912 15.616-15.488 0-8.576-6.912-15.488-15.488-15.616-8.576 0-15.488 6.912-15.616 15.488z m61.952 0c0 8.576 6.912 15.616 15.488 15.616s15.616-6.912 15.616-15.488c0-8.576-6.912-15.616-15.488-15.616-8.576-0.128-15.616 6.912-15.616 15.488z m-3.968-113.664c0 8.576 6.912 15.488 15.488 15.488 8.576 0 15.488-6.912 15.488-15.488s-6.912-15.488-15.488-15.488c-8.576-0.128-15.488 6.912-15.488 15.488z m3.072-93.824z m-56.064 93.824c0 8.576 6.912 15.488 15.488 15.488 8.576 0 15.488-6.912 15.488-15.488s-6.912-15.488-15.488-15.488c-8.448-0.128-15.488 6.912-15.488 15.488z m-2.048-93.824c0 8.576 6.912 15.488 15.36 15.488 8.576 0 15.488-6.912 15.488-15.36 0-8.576-6.912-15.488-15.36-15.488s-15.488 6.784-15.488 15.36z" p-id="13214"></path></svg>