<?xml version="1.0" standalone="no"?><!DOCTYPE svg PUBLIC "-//W3C//DTD SVG 1.1//EN" "http://www.w3.org/Graphics/SVG/1.1/DTD/svg11.dtd"><svg t="1769568407136" class="icon" viewBox="0 0 1024 1024" version="1.1" xmlns="http://www.w3.org/2000/svg" p-id="12007" xmlns:xlink="http://www.w3.org/1999/xlink" width="200" height="200"><path d="M621.335273 136.704c35.002182-2.746182 65.303273 8.331636 89.995636 28.113455 13.172364 10.542545 22.132364 21.224727 27.229091 29.253818 1.792 2.792727 3.072 5.864727 3.816727 9.076363 0.907636 3.956364 2.094545 10.705455 3.258182 20.084364 6.562909 53.597091 3.490909 120.040727-15.243636 196.096l-1.605818 6.167273 177.128727 48.546909a29.090909 29.090909 0 0 1 21.015273 32.814545l-0.651637 2.932364a29.090909 29.090909 0 0 1-32.814545 21.015273l-2.932364-0.651637-205.218909-56.226909a29.090909 29.090909 0 0 1-20.177455-36.398545c24.692364-82.641455 29.346909-153.227636 22.737455-207.220364l-1.233455-8.797091-1.303272-1.512727a82.967273 82.967273 0 0 0-7.284364-7.168l-3.095273-2.583273c-13.870545-11.124364-30.021818-17.035636-49.105454-15.546182-32.442182 2.536727-75.473455 20.503273-126.743273 56.855273A29.090909 29.090909 0 0 1 465.454545 204.078545c59.205818-41.960727 111.825455-63.953455 155.880728-67.374545zM414.952727 241.873455l36.794182 45.079272-45.707636 37.306182c-3.816727 3.165091-10.449455 9.844364-17.082182 18.850909-19.246545 26.088727-22.551273 49.361455-3.677091 72.145455 4.282182 5.143273 9.728 10.356364 16.058182 15.290182l4.887273 3.67709 171.473454 114.734546a29.090909 29.090909 0 0 1 5.864727 43.170909l-2.257454 2.327273-179.595637 166.632727-39.563636-42.635636 152.576-141.614546-141.498182-94.72a176.616727 176.616727 0 0 1-28.183272-24.529454l-4.538182-5.213091c-39.051636-47.080727-31.767273-98.536727 1.629091-143.802182a176.453818 176.453818 0 0 1 24.040727-26.763636l2.862545-2.443637 45.940364-37.469091z" fill="#2c2c2c" p-id="12008"></path><path d="M41.006545 547.234909a29.090909 29.090909 0 0 1 36.77091-12.474182l2.862545 1.396364 720.221091 406.062545c0.442182 0.232727 2.606545 1.28 6.213818 2.513455 21.341091 7.261091 46.429091 5.166545 74.705455-14.219636a29.090909 29.090909 0 0 1 32.907636 47.988363c-44.450909 30.487273-88.576 34.141091-126.324364 21.317818a101.073455 101.073455 0 0 1-15.057454-6.353454L52.084364 586.868364a29.090909 29.090909 0 0 1-11.077819-39.633455zM878.429091 17.454545a108.311273 108.311273 0 1 0 0 216.645819 108.311273 108.311273 0 0 0 0-216.645819z m0 58.181819a50.129455 50.129455 0 1 1 0 100.282181 50.129455 50.129455 0 0 1 0-100.282181z" fill="#2c2c2c" p-id="12009"></path><path d="M568.832 301.381818l36.957091 44.916364-43.333818 35.630545 145.314909 120.343273c2.792727 2.56 5.957818 6.144 9.076363 10.798545l2.327273 3.723637c18.688 31.604364 13.079273 70.818909-25.390545 107.566545l-191.790546 176.430546-39.400727-42.821818 187.694545-172.637091c20.945455-18.734545 23.668364-29.090909 19.595637-37.469091l-1.373091-2.466909c-0.046545-0.069818-0.046545-0.116364 0-0.116364l-170.286546-141.009455a29.090909 29.090909 0 0 1-2.39709-42.58909l2.466909-2.280728 70.539636-58.018909z" fill="#2c2c2c" p-id="12010"></path><path d="M178.967273 132.561455a29.090909 29.090909 0 0 1 36.305454-14.196364l2.746182 1.186909L653.730909 337.454545a29.090909 29.090909 0 0 1-23.272727 53.224728l-2.746182-1.163637L191.976727 171.566545a29.090909 29.090909 0 0 1-13.009454-39.028363z" fill="#2c2c2c" p-id="12011"></path><path d="M257.210182 114.967273a29.090909 29.090909 0 0 1 54.993454 18.781091l-0.977454 2.816-39.610182 99.048727a29.090909 29.090909 0 0 1-54.970182-18.804364l0.954182-2.792727 39.610182-99.048727zM657.733818 235.333818l2.978909 0.139637a29.090909 29.090909 0 0 1 26.135273 28.928l-0.162909 2.978909-14.196364 138.658909a29.090909 29.090909 0 0 1-58.042182-2.955637l0.16291-2.978909 14.196363-138.658909a29.090909 29.090909 0 0 1 28.928-26.112z" fill="#2c2c2c" p-id="12012"></path></svg>