<?xml version="1.0" standalone="no"?><!DOCTYPE svg PUBLIC "-//W3C//DTD SVG 1.1//EN" "http://www.w3.org/Graphics/SVG/1.1/DTD/svg11.dtd"><svg t="1769569424194" class="icon" viewBox="0 0 1024 1024" version="1.1" xmlns="http://www.w3.org/2000/svg" p-id="14245" xmlns:xlink="http://www.w3.org/1999/xlink" width="200" height="200"><path d="M204.8 798.72a40.96 40.96 0 0 0 0 81.92h604.16a40.96 40.96 0 0 0 0-81.92H204.8zM163.84 706.56a40.96 40.96 0 0 1 40.96-40.96h332.8a40.96 40.96 0 0 1 0 81.92H204.8a40.96 40.96 0 0 1-40.96-40.96zM459.78624 369.79712l108.38016-194.4576a218.85952 218.85952 0 0 0-102.59456-25.35424C344.17664 149.98528 245.76 248.39168 245.76 369.79712c0 121.3952 98.4064 219.81184 219.81184 219.81184 83.8656 0 156.75392-46.96064 193.81248-116.0192L459.78624 369.79712z" fill="#000000" p-id="14246"></path><path d="M750.60224 335.2576c-7.23968-85.248-57.344-158.27968-128.6656-197.4784L495.104 356.5568l255.49824-21.27872zM491.52 368.64l238.85824 94.24896a271.8208 271.8208 0 0 0 18.56512-94.17728L491.52 368.64z" fill="#000000" p-id="14247"></path><path d="M0 122.88C0 55.01952 55.01952 0 122.88 0h778.24c67.86048 0 122.88 55.01952 122.88 122.88v778.24c0 67.86048-55.01952 122.88-122.88 122.88H122.88c-67.86048 0-122.88-55.01952-122.88-122.88V122.88z m122.88-40.96a40.96 40.96 0 0 0-40.96 40.96v778.24a40.96 40.96 0 0 0 40.96 40.96h778.24a40.96 40.96 0 0 0 40.96-40.96V122.88a40.96 40.96 0 0 0-40.96-40.96H122.88z" fill="#000000" p-id="14248"></path></svg>