<?xml version="1.0" standalone="no"?><!DOCTYPE svg PUBLIC "-//W3C//DTD SVG 1.1//EN" "http://www.w3.org/Graphics/SVG/1.1/DTD/svg11.dtd"><svg t="1769567852977" class="icon" viewBox="0 0 1024 1024" version="1.1" xmlns="http://www.w3.org/2000/svg" p-id="9024" xmlns:xlink="http://www.w3.org/1999/xlink" width="200" height="200"><path d="M566.166 273.75c0-97.202-78.798-176-176-176s-176 78.798-176 176c0 24.301 4.925 47.451 13.831 68.507a175.834 175.834 0 0 0 20.79 36.329h-0.005l129.434 190.793 0.026-0.006c2.051 4.102 6.597 6.961 11.889 6.961 5.085 0 9.482-2.641 11.638-6.488l0.032 0.01 129.827-191.38h-0.006c21.702-29.265 34.544-65.495 34.544-104.726z m-176 66.5c-36.727 0-66.5-29.773-66.5-66.5s29.773-66.5 66.5-66.5 66.5 29.773 66.5 66.5-29.773 66.5-66.5 66.5zM493.092 895.297H245.468c-2.266 0-4.542-0.157-6.799-0.47-28.655-2.505-55.201-15.417-74.937-36.497-20.299-21.681-31.478-49.983-31.478-79.696 0-29.495 11.038-57.646 31.082-79.269 19.221-20.734 45.054-33.691 73.022-36.696 3-0.561 6.048-0.843 9.11-0.843h233.465v0.021h354.823l3.799-0.309c20.277-1.646 36.16-18.897 36.16-39.274 0-20.595-16.068-37.861-36.581-39.309l-1.765-0.124H587.593v-80h250.263c2.299 0 4.605 0.161 6.892 0.479 29.346 2.558 56.531 15.778 76.743 37.365 20.78 22.196 32.225 51.171 32.225 81.589 0 30.195-11.3 59.016-31.819 81.15-19.69 21.241-46.159 34.511-74.814 37.575a50.088 50.088 0 0 1-9.226 0.857H466.093v-0.021H249.489l-3.619 0.294c-18.851 1.529-33.617 17.568-33.617 36.514 0 19.147 14.938 35.2 34.009 36.547l1.652 0.116h245.177v80.001z" p-id="9025" fill="#2c2c2c"></path></svg>