<?xml version="1.0" standalone="no"?><!DOCTYPE svg PUBLIC "-//W3C//DTD SVG 1.1//EN" "http://www.w3.org/Graphics/SVG/1.1/DTD/svg11.dtd"><svg t="1769567797884" class="icon" viewBox="0 0 1024 1024" version="1.1" xmlns="http://www.w3.org/2000/svg" p-id="6993" xmlns:xlink="http://www.w3.org/1999/xlink" width="200" height="200"><path d="M955.536626 349.77255V273.85372c0-44.015861-28.763853-81.412282-68.992303-96.220719C878.833018 78.375529 759.273656 0 659.470251 0h-295.008631C264.589973 0 145.064733 78.40965 137.387548 177.667122 97.159098 192.475559 68.395245 229.87198 68.395245 273.887841v86.189197l0.102362 6.653561C27.791466 388.636167 0.1536 452.2715 0.1536 528.872747c0 95.674786 43.469928 170.604112 98.950385 170.604111h6.926527c2.968512 14.398987 5.80054 26.000067 8.32548 32.858352 16.207391 43.708773 253.790677 246.932391 301.286862 287.229083 0.784779 0.648296 1.706041 0.989504 2.559062 1.467195 0.784779 0.443571 1.433075 0.989504 2.286095 1.330713A16.787445 16.787445 0 0 0 426.66388 1023.624671h170.604111a16.787445 16.787445 0 0 0 6.175869-1.26247c0.921262-0.375329 1.67192-0.955383 2.524941-1.467196 0.784779-0.477692 1.637799-0.750658 2.320216-1.364833 47.496185-40.296691 285.079471-243.486188 301.286861-287.229082 3.480324-9.349105 7.47246-27.160175 11.635201-49.884643h3.616807c55.480457 0 98.950385-74.929326 98.950385-170.604112 0-76.498884-27.603745-140.134217-68.241645-162.039785zM364.46162 34.120822h295.008631c81.241678 0 179.134317 61.519843 192.168471 136.756256-1.023625 0-1.944887-0.272967-2.968511-0.272966-20.608977 0-62.679951 5.561694-116.010796 12.590583C660.084425 192.782646 569.698367 204.724934 511.965935 204.724934s-148.11849-11.942288-220.693479-21.496118c-53.296725-7.028889-95.401819-12.590583-116.010796-12.590583-1.023625 0-1.944887 0.272967-2.968511 0.272966C185.293182 95.640665 283.219942 34.120822 364.46162 34.120822zM99.103985 665.356036c-30.640498 0-64.829562-56.060511-64.829563-136.483289 0-55.207491 16.139149-98.779781 35.895105-120.753591 4.57219 75.236413 17.299257 184.764253 29.514512 257.23688H99.103985zM580.20758 989.503849h-136.51741v-51.181234H580.20758V989.503849z m0-85.302056h-136.51741V853.020559H580.20758v51.181234z m0-85.302056h-136.51741v-51.181234H580.20758V818.899737z m-134.060711-85.302056c7.643064-29.343907 34.120822-51.181234 65.819066-51.181234s58.176002 21.837326 65.819067 51.181234h-131.638133zM921.415804 360.077038c0 65.98967-16.036787 208.375862-30.094565 294.667422A16.787445 16.787445 0 0 0 887.294981 665.356036c0 2.115491 0.511812 4.094499 1.194229 5.971144-4.060378 23.168038-7.88191 40.979108-10.884542 49.168105-8.393722 22.110293-135.834994 139.656526-263.276265 249.082003V750.658092c0-56.43584-45.926627-102.362467-102.362468-102.362467a102.46483 102.46483 0 0 0-102.328346 102.021259l-0.068241 0.341208v218.885076c-127.475392-109.425477-254.882543-226.97171-263.276266-249.082004-13.921296-37.73763-43.811136-270.407517-43.811136-360.418246V273.85372C102.481946 235.740762 135.101452 204.724934 175.22754 204.724934c18.425244 0 61.553964 5.698177 111.575089 12.317617C360.401243 226.766985 451.98153 238.845757 511.965935 238.845757s151.564693-12.078771 225.129186-21.769085c50.021126-6.61944 93.183966-12.317617 111.57509-12.317617 40.126087 0 72.745593 31.015828 72.745593 69.128786v86.189197z m5.664056 287.706775c12.181134-77.522508 24.259905-186.197328 27.535504-255.633202C973.96187 414.431508 989.657449 457.457865 989.657449 511.812335c0 78.477891-32.551265 133.344174-62.577589 135.971478zM800.048039 300.160874C725.221075 287.775016 614.499007 272.966579 511.965935 272.966579s-213.25514 14.808437-288.116224 27.228416A103.795542 103.795542 0 0 0 155.403342 342.914265a102.123621 102.123621 0 0 0-16.958049 78.034321l66.876812 282.486288a17.060411 17.060411 0 1 0 33.19956-7.88191l-66.672087-281.565026a67.798074 67.798074 0 0 1 11.430476-51.385959c10.918663-15.422612 27.296658-25.624738 46.199593-28.763853C303.04414 321.622872 411.75308 307.087401 511.965935 307.087401s208.921795 14.53547 282.486289 26.716604a70.050048 70.050048 0 0 1 46.199593 28.763853c10.611576 15.047283 14.671954 33.301923 11.635201 50.464697l-66.876812 282.486288a17.060411 17.060411 0 1 0 33.165439 7.88191l67.081537-283.407551a101.611809 101.611809 0 0 0-17.162774-77.113058 104.068508 104.068508 0 0 0-68.446369-42.71927z m8.257239 81.753491a59.74556 59.74556 0 0 0-43.231082-24.396388C697.378484 351.41035 574.475282 341.208224 511.965935 341.208224c-62.509347 0-185.412549 10.202126-253.074139 16.343874a59.643197 59.643197 0 0 0-43.231082 24.396388c-9.690314 13.443604-13.034154 30.367532-9.212622 46.404318C229.786735 526.177202 277.999457 580.05398 342.214844 580.05398c27.637866 0 56.981773-16.889807 87.997601-34.734997C458.839815 528.838626 488.456689 511.812335 511.965935 511.812335s53.12612 17.02629 81.753491 33.506648c31.015828 17.84519 60.325614 34.734997 87.997601 34.734997 64.181267 0 112.42811-53.876779 135.800873-151.735297 3.821532-16.036787 0.443571-32.960714-9.212622-46.404318z m-23.986938 38.488287C773.12671 467.284662 744.90879 545.933158 681.717027 545.933158c-18.527607 0-45.175969-15.35437-70.971311-30.196928C578.194452 497.038019 544.585442 477.691513 511.965935 477.691513s-66.228516 19.346506-98.745659 38.044717c-25.795342 14.842558-52.443704 30.196928-70.971311 30.196928-63.191763 0-91.409683-78.648496-102.601313-125.530506a22.451501 22.451501 0 0 1 3.685049-18.561727 25.556496 25.556496 0 0 1 18.595848-10.338609C329.044207 385.46293 450.787301 375.329046 511.965935 375.329046c61.178635 0 182.921729 10.133884 250.071508 16.17327 7.574823 0.682416 14.364866 4.435707 18.595848 10.338609a22.451501 22.451501 0 0 1 3.685049 18.561727z" p-id="6994" fill="#2c2c2c"></path></svg>