<?xml version="1.0" standalone="no"?><!DOCTYPE svg PUBLIC "-//W3C//DTD SVG 1.1//EN" "http://www.w3.org/Graphics/SVG/1.1/DTD/svg11.dtd"><svg t="1769569982691" class="icon" viewBox="0 0 1024 1024" version="1.1" xmlns="http://www.w3.org/2000/svg" p-id="21142" xmlns:xlink="http://www.w3.org/1999/xlink" width="200" height="200"><path d="M512 232.727273c-129.524364 0-258.944 27.531636-388.096 82.466909A69.841455 69.841455 0 0 0 81.454545 379.426909v222.021818a69.701818 69.701818 0 0 0 14.11491 42.077091C163.374545 733.323636 232.110545 779.636364 302.545455 779.636364l3.84-0.046546c70.167273-1.675636 128.151273-49.570909 173.602909-139.601454l64.372363 0.011636C593.105455 731.694545 652.078545 779.636364 721.454545 779.636364c67.746909 0 136.098909-46.08 206.219637-135.610182A69.585455 69.585455 0 0 0 942.545455 600.994909V379.426909a69.829818 69.829818 0 0 0-42.426182-64.232727C770.944 260.270545 641.524364 232.727273 512 232.727273z m0 46.545454c123.124364 0 246.365091 26.216727 369.873455 78.754909A23.272727 23.272727 0 0 1 896 379.438545v221.556364c0 5.189818-1.745455 10.228364-4.933818 14.289455C828.846545 694.714182 771.933091 733.090909 721.454545 733.090909c-49.117091 0-94.510545-36.898909-135.982545-114.932364A46.475636 46.475636 0 0 0 544.384 593.454545h-64.418909a46.464 46.464 0 0 0-41.576727 25.693091C399.313455 696.529455 354.141091 733.090909 302.545455 733.090909c-53.096727 0-109.963636-38.283636-169.844364-117.632A23.179636 23.179636 0 0 1 128 601.448727v-222.021818c0-9.320727 5.573818-17.757091 14.149818-21.410909C265.634909 305.489455 388.875636 279.272727 512 279.272727z" fill="#424242" p-id="21143"></path><path d="M1000.727273 372.363636h-69.818182a23.272727 23.272727 0 0 0-23.272727 23.272728v197.818181a23.272727 23.272727 0 0 0 23.272727 23.272728h69.818182a23.272727 23.272727 0 0 0 23.272727-23.272728V395.636364a23.272727 23.272727 0 0 0-23.272727-23.272728z m-23.272728 46.545455v151.272727h-23.272727V418.909091h23.272727zM93.090909 372.363636H23.272727a23.272727 23.272727 0 0 0-23.272727 23.272728v197.818181a23.272727 23.272727 0 0 0 23.272727 23.272728h69.818182a23.272727 23.272727 0 0 0 23.272727-23.272728V395.636364a23.272727 23.272727 0 0 0-23.272727-23.272728z m-23.272727 46.545455v151.272727H46.545455V418.909091h23.272727zM216.273455 355.909818a23.272727 23.272727 0 0 1 34.26909 31.429818l-1.361454 1.477819-64 64a23.272727 23.272727 0 0 1-34.269091-31.429819l1.361455-1.477818 64-64z" fill="#424242" p-id="21144"></path><path d="M309.364364 355.909818a23.272727 23.272727 0 0 1 34.269091 31.429818l-1.361455 1.477819-139.636364 139.636363a23.272727 23.272727 0 0 1-34.269091-31.429818l1.361455-1.477818 139.636364-139.636364z" fill="#E91919" p-id="21145"></path></svg>