<?xml version="1.0" standalone="no"?><!DOCTYPE svg PUBLIC "-//W3C//DTD SVG 1.1//EN" "http://www.w3.org/Graphics/SVG/1.1/DTD/svg11.dtd"><svg t="1769567647295" class="icon" viewBox="0 0 1024 1024" version="1.1" xmlns="http://www.w3.org/2000/svg" p-id="4932" xmlns:xlink="http://www.w3.org/1999/xlink" width="200" height="200"><path d="M730.47 347.414c-8.629-14.945-27.74-20.066-42.685-11.437l-4.767 2.752c-14.946 8.629-20.066 27.74-11.437 42.685l29.752 51.533c8.629 14.945 27.74 20.066 42.685 11.437l4.767-2.752c14.945-8.629 20.066-27.74 11.437-42.685l-29.752-51.533z" fill="#2c2c2c" p-id="4933"></path><path d="M979.204 459.093L790.713 132.616c-12.333-21.36-35.326-34.629-60.006-34.629a69.277 69.277 0 0 0-34.589 9.284L67.849 470.002c-16.019 9.249-27.477 24.181-32.265 42.048-4.787 17.867-2.33 36.528 6.918 52.546l188.491 326.477c12.333 21.36 35.325 34.63 60.005 34.63a69.283 69.283 0 0 0 34.589-9.283l628.27-362.731c33.068-19.093 44.438-61.528 25.347-94.596z m-57.347 39.169l-78.877 45.54a31.355 31.355 0 0 0-2.758-6.291l-29.752-51.533c-8.629-14.945-27.74-20.066-42.685-11.437l-4.767 2.752c-14.946 8.629-20.066 27.74-11.437 42.685l29.752 51.533a31.362 31.362 0 0 0 4.069 5.534L293.588 860.993a5.047 5.047 0 0 1-2.589 0.709c-0.718 0-3.17-0.189-4.579-2.63L97.928 532.595c-0.898-1.555-0.78-3.022-0.524-3.98a5.153 5.153 0 0 1 2.445-3.187l491.878-283.986a31.327 31.327 0 0 0 2.854 6.604l29.752 51.533c8.629 14.945 27.74 20.066 42.685 11.437l4.767-2.752c14.945-8.629 20.066-27.74 11.437-42.685l-29.752-51.533a31.35 31.35 0 0 0-4.292-5.773l78.94-45.576a5.05 5.05 0 0 1 2.589-0.709c0.719 0 3.171 0.19 4.58 2.63l188.491 326.476a5.253 5.253 0 0 1-1.921 7.168z" fill="#2c2c2c" p-id="4934"></path><path d="M577.712 505.334l-152.833-54.333a32 32 0 0 0-42.19 24.358l-13.346 72.508-98.57-35.043a32 32 0 0 0-42.19 24.358l-46.307 251.581c-3.199 17.382 8.297 34.065 25.678 37.265 1.958 0.36 3.907 0.534 5.83 0.534 15.139 0 28.596-10.79 31.435-26.213l39.508-214.641 205.638 73.105c16.653 5.919 34.951-2.779 40.87-19.433 5.921-16.651-2.78-34.95-19.432-40.87l-82.083-29.181a32.149 32.149 0 0 0 1.962-6.588l7.152-38.857 117.443 41.751c16.653 5.919 34.95-2.78 40.87-19.433s-2.783-34.948-19.435-40.868z" fill="#2c2c2c" p-id="4935"></path></svg>