<?xml version="1.0" standalone="no"?><!DOCTYPE svg PUBLIC "-//W3C//DTD SVG 1.1//EN" "http://www.w3.org/Graphics/SVG/1.1/DTD/svg11.dtd"><svg t="1769569731559" class="icon" viewBox="0 0 1024 1024" version="1.1" xmlns="http://www.w3.org/2000/svg" p-id="15308" xmlns:xlink="http://www.w3.org/1999/xlink" width="200" height="200"><path d="M984.565657 408.177778c18.230303 0 32.711111-13.834343 32.711111-31.030303v-144.808081c0-34.521212-29.090909-62.060606-65.422223-62.060606h-886.949494c-32.711111 0-61.80202 27.539394-61.802021 62.060606v148.169697c0 17.19596 14.480808 31.030303 32.711111 31.030303 50.941414 0 90.892929 37.882828 90.89293 86.238384s-39.951515 86.238384-90.89293 86.238384c-18.230303 0-32.711111 13.834343-32.711111 31.030303v148.169697c0 34.521212 29.090909 62.060606 65.422223 62.060606h886.949494c36.331313 0 65.422222-27.539394 65.422223-62.060606V614.917172c0-17.19596-14.480808-31.030303-32.711111-31.030303-50.941414 0-90.892929-37.882828-90.89293-86.238384-3.620202-48.09697 36.331313-89.470707 87.272728-89.470707z m-29.09091 230.917171v120.630304H297.50303V714.989899c0-17.19596-14.480808-31.030303-32.711111-31.030303s-32.711111 13.834343-32.711111 31.030303v44.864646H64.905051v-120.630303c69.042424-13.834343 119.983838-72.40404 119.983838-144.80808 0-68.913131-50.941414-127.482828-119.983838-144.808081v-117.268687H232.080808V280.565657c0 17.19596 14.480808 31.030303 32.711111 31.030303s32.711111-13.834343 32.711111-31.030303v-48.226263h657.971717V352.969697c-69.042424 13.834343-123.60404 72.40404-123.60404 144.808081 0 68.913131 50.941414 127.482828 123.60404 141.317171z" fill="#333333" p-id="15309"></path><path d="M264.791919 394.343434c-18.230303 0-32.711111 13.834343-32.711111 31.030303v144.808081c0 17.19596 14.480808 31.030303 32.711111 31.030303s32.711111-13.834343 32.711111-31.030303V425.373737c0-17.19596-14.610101-31.030303-32.711111-31.030303z" fill="#3E3A39" p-id="15310"></path><path d="M715.248485 542.90101h-100.072727v-44.735353h100.977777c17.713131 0 31.935354-14.351515 32.064647-31.935354 0-17.713131-14.222222-31.935354-31.935354-31.935354h-83.652525l103.563636-106.795959c11.377778-12.8 13.187879-32.323232 0.775758-44.218182-12.412121-11.894949-32.064646-11.765657-44.347475 0.258586l-109.511111 110.674747-108.60606-109.640404c-12.412121-11.894949-31.806061-11.894949-44.218182-0.129293-12.412121 11.765657-9.309091 32.581818 1.939394 45.381819l101.365656 104.468686h-81.066666c-17.713131 0-31.935354 14.351515-31.935354 31.935354 0 8.533333 3.361616 16.678788 9.309091 22.626263s14.092929 9.309091 22.49697 9.309091h98.909091v44.735353h-99.814142c-17.713131 0-31.935354 14.351515-31.935353 31.935354 0 8.40404 3.361616 16.549495 9.30909 22.496969 5.947475 5.947475 14.092929 9.309091 22.49697 9.309091h99.943435v86.755556c0 8.533333 3.361616 16.678788 9.30909 22.626262 6.076768 5.947475 14.222222 9.309091 22.626263 9.309091 17.713131 0 31.935354-14.222222 31.935354-31.676767v-87.014142h99.943434c17.713131 0 31.935354-14.222222 32.064646-31.80606 0-17.713131-14.222222-31.935354-31.935353-31.935354z" p-id="15311"></path></svg>